<svg xmlns="http://www.w3.org/2000/svg" viewBox="0 0 226.05 211.58"><g id="Layer_2" data-name="Layer 2"><g id="Layer_1-2" data-name="Layer 1"><path d="M59.22,97.34c9.29-.07,18,2.34,26.49,5.94,17.6,7.45,34.75,6.43,51-3.76,22.95-14.41,30-44.75,16.07-67.5-13-21.2-40.67-27.87-61.43-14.81C69.46,31,66.3,61.73,85,78.47c14.43,12.9,36.21,11.44,47.9-3.21,9.31-11.66,8.15-28.42-2.62-38-8.47-7.52-21.1-8.2-29.5-1.4-6.17,5-8.55,11.56-6.77,19.34A14.39,14.39,0,0,0,110.28,66.4c5-.82,8.75-5.13,8.44-9.79a5.9,5.9,0,0,0-2.94-5.08c-2.31-1.33-4.14-.32-4.71,2.31-.24,1.08-.87,2.89-1.41,2.93a6.73,6.73,0,0,1-4.25-1.09c-2.27-1.74-2.57-5.23-1.16-8.24,2.53-5.4,9.33-7.57,15.42-4.92,7.14,3.1,10.84,11.39,8.64,19.36-3.51,12.68-18,18.77-30.53,12.84C84.85,68.61,79.39,52.46,85.65,38.81c7-15.28,25.57-22.18,41.63-15.47,19.77,8.25,28,31.75,18.14,51.51C134.81,96.06,108.09,104,86.64,92.28c-23-12.53-31.19-42.17-18.16-65.45C84.62-2,122.74-8.83,149.15,12.4c23.68,19,28.16,53.81,10.26,79.49a65.19,65.19,0,0,1-15.26,15.3c-12.57,9.19-20.23,21.46-22.24,36.91-4.11,31.68,20.52,58.94,51.46,57,29.74-1.89,48-29.46,40.53-55.38C208,125.05,186.31,113,166.08,119.17c-18.2,5.6-28.27,25-22,42.33,5,13.88,19.5,21.74,33.23,18,12.62-3.4,20.23-16.14,16.73-28-3-10.25-13.8-16-22.91-12.29a12.86,12.86,0,0,0-8.3,13,9.19,9.19,0,0,0,3.52,6.44,5.88,5.88,0,0,0,6.18,1.15,6,6,0,0,0,2.74-2.86c.6-1.31-.48-2.1-1.67-2.88-2.4-1.57-2.13-4,.39-5.34,2.7-1.46,6.57-.33,8.77,2.56,2.86,3.77,2.63,9.54-.77,13.55-4.17,4.94-9.58,6.42-15.74,4.79-9.66-2.55-15.52-12.75-13.32-22.93,3.05-14.18,17.84-22.22,32.28-17.56,15,4.83,23.27,21.09,18.83,36.86-5.76,20.48-29.21,30.78-49,21.54-21.32-9.94-29.53-35.82-18.06-56.92,11.84-21.75,39.37-29.95,61.67-18.38,31.2,16.2,36.94,58.6,11.29,83.35-26.42,25.48-69.75,19.8-89.36-11.68a64.86,64.86,0,0,1-9.45-28.36,53.13,53.13,0,0,0-44.52-47.21c-25.48-4.12-50,12.24-55.17,37.47C5.47,174.48,27,199.14,53.88,198.41a37.31,37.31,0,0,0,36.41-42C87.84,137.45,68.88,124.58,51,129.65c-13.63,3.86-21.94,17-19.25,30.41,2.58,12.92,15.82,20.86,27.46,16.46,8.15-3.08,12.66-11.57,10.23-19.28-1.82-5.75-7.38-9.2-12.74-7.92a6.56,6.56,0,0,0-5.37,5.8c-.15,3,1.49,4.12,4.37,3.2,1.05-.33,2.8-.59,3.29,0a5.47,5.47,0,0,1,1.15,3.78c-.27,3-3.22,5.2-6.76,5.47-7.25.57-13.26-6.89-11.89-14.73,1.28-7.31,7.83-13.09,15.32-13.89,13.06-1.4,24.79,10.05,23.52,24.41-1.67,19-21.56,30-39.78,22.28C23,178.18,15.65,156.78,24.51,139c9.1-18.26,31.65-26,51-17.43A43.43,43.43,0,0,1,101,163.23c-1.54,30.34-30.21,51.43-60.15,44.3A53.48,53.48,0,0,1,.12,151.8C2.22,120.57,27.77,97.21,59.22,97.34Zm60.83,20.3-13.69,1.11c2.8,4.06,5.24,7.61,7.83,11.39C116.23,125.79,118.07,121.85,120.05,117.64Z"/></g></g></svg>