<svg xmlns="http://www.w3.org/2000/svg" viewBox="0 0 204.79 133.46"><defs><style>.cls-1{fill:#401514;}</style></defs><g id="Layer_2" data-name="Layer 2"><g id="Layer_1-2" data-name="Layer 1"><path class="cls-1" d="M192.23.13c-3.77.17-7.54.48-11.28,1a161,161,0,0,0-26.82,5.84,181.79,181.79,0,0,0-25.33,9.92,230,230,0,0,0-23.67,13A307,307,0,0,0,62.54,62.33c-6.6,6-13,12.18-19.15,18.55s-12.16,12.91-17.9,19.66C16.49,111.13,7.9,122.06,0,133.46H1.29q4.56-5.51,9.29-10.83,8.72-9.91,17.94-19.33A445.69,445.69,0,0,1,67.25,67.84,320.77,320.77,0,0,1,110.11,38.2c15-8.53,30.84-15.64,47.28-20.1a149.43,149.43,0,0,1,24.94-4.67c1-.13,2.1-.19,3.15-.26l3.14-.22c1.21,0,2.41-.08,3.61-.11l2.69-.06c2.1.05,4.2,0,6.29.15l3.13.2.45,0V.16Q198.51-.14,192.23.13Z"/></g></g></svg>