<svg xmlns="http://www.w3.org/2000/svg" viewBox="0 0 29.01 20.94"><defs><style>.cls-1{fill:#3f1513;}.cls-2{fill:none;stroke:#3f1513;stroke-linecap:round;stroke-miterlimit:10;}</style></defs><g id="Layer_2" data-name="Layer 2"><g id="Layer_1-2" data-name="Layer 1"><path class="cls-1" d="M5.28,2.42a37.93,37.93,0,0,0-.08,4,14.43,14.43,0,0,0,.69,3.83,14.35,14.35,0,0,1,.81,4.06,9.4,9.4,0,0,0,.53,3.76.51.51,0,0,1-.22.67.5.5,0,0,1-.67-.22h0a10.29,10.29,0,0,1-.64-4.16,13.22,13.22,0,0,0-.76-3.81,16,16,0,0,1-.74-4.07,36.83,36.83,0,0,1,.09-4.08A.49.49,0,0,1,4.8,1.9.5.5,0,0,1,5.28,2.42Z"/><path class="cls-1" d="M8.23.62c.06,1.43,0,2.83,0,4.25a29.8,29.8,0,0,0,.47,4.21A31.91,31.91,0,0,0,9.8,13.2a8.6,8.6,0,0,1,.5,4.54.5.5,0,0,1-.6.37.5.5,0,0,1-.38-.58h0a7.66,7.66,0,0,0-.68-3.94,30.78,30.78,0,0,1-1.2-4.25,29.66,29.66,0,0,1-.53-4.41A14.86,14.86,0,0,1,7.23.51a.51.51,0,0,1,1,.1Z"/><path class="cls-1" d="M11.92,1.65a37.08,37.08,0,0,0,.15,8,38.28,38.28,0,0,0,.73,4,26.18,26.18,0,0,1,.92,4,.49.49,0,0,1-.46.53.49.49,0,0,1-.53-.46h0a29.7,29.7,0,0,0-.89-3.88,34.94,34.94,0,0,1-.75-4.06,37.84,37.84,0,0,1-.17-8.24.5.5,0,0,1,1,.09Z"/><path class="cls-1" d="M13.88.57a21.66,21.66,0,0,0-.14,3.69c0,1.23.14,2.45.26,3.68a49.32,49.32,0,0,0,1.33,7.24.5.5,0,0,1-.36.61.5.5,0,0,1-.61-.35v0A63.84,63.84,0,0,1,13.24,8C13.12,6.77,13,5.53,13,4.28s0-2.49-.13-3.74A.5.5,0,0,1,13.34,0a.5.5,0,0,1,.54.47Z"/><path class="cls-1" d="M.17,9.42A.49.49,0,0,1,.69,9.2h.53l1.05,0q1.05-.09,2.1-.24c1.4-.19,2.8-.49,4.24-.73A31.73,31.73,0,0,1,13,7.68a17.83,17.83,0,0,1,4.43.45.5.5,0,0,1,.38.6.51.51,0,0,1-.58.38,22.12,22.12,0,0,0-8.37.38c-1.4.28-2.83.57-4.28.8-.72.11-1.45.2-2.19.26l-1.11.07H.71c-.18,0-.37,0-.55-.21a.84.84,0,0,1,0-1Z"/><path class="cls-2" d="M22.36.8a72.45,72.45,0,0,0,1,17.71"/><path class="cls-2" d="M24.36,4.87c-.45,2,.44,3.93.72,5.91.19,1.39.07,2.81.13,4.21a33.48,33.48,0,0,0,.8,5.45"/><path class="cls-2" d="M26.33,1.53c-.28,2.93.9,5.78,1.32,8.7.38,2.73.09,5.57.86,8.23"/></g></g></svg>