<svg xmlns="http://www.w3.org/2000/svg" viewBox="0 0 45.4 143.55"><defs><style>.cls-1{fill:#401514;}</style></defs><g id="Layer_2" data-name="Layer 2"><g id="Layer_1-2" data-name="Layer 1"><path class="cls-1" d="M43,131.36l-1.25-.83-.63-.42c-.2-.14-.39-.31-.58-.47l-2.35-1.91-.59-.48-.54-.53-1.09-1.07-1.1-1.06a11.12,11.12,0,0,1-1.06-1.11c-.32-.34-.62-.71-.93-1.06a84.46,84.46,0,0,1-12.62-20l-1.36-2.91c-.42-1-.8-2-1.21-3-.78-2-1.64-4-2.29-6s-1.44-4.08-2.07-6.16L11.47,78c-.32-1-.55-2.1-.82-3.15L9.87,71.7l-.78-3.17c-.24-1.06-.45-2.14-.67-3.2L7.09,58.91,5.94,52.44c-.82-4.3-1.34-8.66-2-13-.34-2.17-.54-4.35-.8-6.53l-.76-6.56L1.16,13.19Q.86,8.84.54,4.48C.43,3,.33,1.5.22,0c0,1.49,0,3-.08,4.48C.09,7.4,0,10.32,0,13.24L.15,26.49l.28,6.63c.12,2.21.16,4.42.35,6.63.34,4.41.56,8.84,1.08,13.25l.7,6.62,1,6.6c.16,1.1.3,2.21.49,3.31l.61,3.28.61,3.29c.21,1.1.38,2.2.65,3.29l1.5,6.54c.53,2.18,1.18,4.33,1.77,6.5s1.33,4.31,2,6.45c.36,1.07.7,2.15,1.09,3.21l1.26,3.17a89.85,89.85,0,0,0,13.77,23.9,14.53,14.53,0,0,0,1.16,1.33l1.21,1.3,1.22,1.3.61.64.66.6.68.61,2,1.77c.23.2.45.41.68.59l.73.54,1.45,1.07a57.77,57.77,0,0,0,6.13,3.89l1.57.75V132.89A19.94,19.94,0,0,1,43,131.36Z"/></g></g></svg>