<svg xmlns="http://www.w3.org/2000/svg" viewBox="0 0 66.73 29.31"><defs><style>.cls-1{fill:none;stroke:#3f1513;stroke-linecap:round;stroke-miterlimit:10;}</style></defs><g id="Layer_2" data-name="Layer 2"><g id="Layer_1-2" data-name="Layer 1"><path class="cls-1" d="M4.27.5a72.51,72.51,0,0,0,1,17.71"/><path class="cls-1" d="M6.28,4.56c-.46,2,.44,3.93.71,5.92a42.1,42.1,0,0,1,.13,4.21,35.81,35.81,0,0,0,.8,5.45"/><path class="cls-1" d="M8.24,1.22C8,4.16,9.15,7,9.56,9.93c.39,2.73.1,5.57.87,8.22"/><path class="cls-1" d="M11.27,3.16c-.07,2.08.79,4.07,1.34,6.08,1,3.6,1,7.39.93,11.12"/><path class="cls-1" d="M.5,10.41A107,107,0,0,0,19.32,8.93"/><path class="cls-1" d="M23,1.32q.45,8.9.37,17.79"/><path class="cls-1" d="M25.23,3.78a46,46,0,0,0,.36,11.79c.52,2.49,1.45,5,1.18,7.5"/><path class="cls-1" d="M27.13,1.67a37.47,37.47,0,0,0,.46,8.92c.22,1,.52,2,.72,3a29.29,29.29,0,0,1,.3,6.07"/><path class="cls-1" d="M31,2.5a20.85,20.85,0,0,0,.4,7.92c.37,1.16.94,2.25,1.25,3.42a8.12,8.12,0,0,1,0,3.92c-.39,1.61-1.3,3.17-1.14,4.82"/><path class="cls-1" d="M19.66,13.07c6.31.24,12.27-2.78,18.53-3.52"/><path class="cls-1" d="M42.76,5.63q.29,8.78-.21,17.55"/><path class="cls-1" d="M44.91,8q.17,9.54-.26,19.06"/><path class="cls-1" d="M47.15,6.14A109.6,109.6,0,0,1,47,22.55"/><path class="cls-1" d="M49.53,10.79l-.28,17.32"/><path class="cls-1" d="M39.69,14.84A26.39,26.39,0,0,1,55,19"/><path class="cls-1" d="M59.47,7.42q-.15,8.25.1,16.51"/><path class="cls-1" d="M62.72,3.82a56.44,56.44,0,0,0,1.69,17.41"/><path class="cls-1" d="M66.16,10.09q.18,9.36-.11,18.72"/></g></g></svg>