<svg xmlns="http://www.w3.org/2000/svg" viewBox="0 0 122.11 164.03"><defs><style>.cls-1{fill:#411515;}</style></defs><g id="Layer_2" data-name="Layer 2"><g id="Layer_1-2" data-name="Layer 1"><path class="cls-1" d="M53.9,42.2H67.82c.05-1,.13-1.87.13-2.77,0-4.8-.08-9.6,0-14.4A25.22,25.22,0,0,1,84.68,1.46c17.42-6.16,35.7,8.07,33.56,26.41h-14.3c-.09-1.25-.14-2.53-.28-3.8a10.82,10.82,0,0,0-9.73-9.46,10.71,10.71,0,0,0-10.74,7.51,12,12,0,0,0-.46,3.33c0,6.76,0,13.53,0,20.48,16.84,6.89,28.91,18.69,35.43,35.76a59.09,59.09,0,0,1,1.25,39.06A60.54,60.54,0,0,1,59.88,164,60.41,60.41,0,0,1,1.55,116.67C-5,87.88,9.42,58.14,39.06,46V26.36a11.78,11.78,0,0,0-1.89-7,10.28,10.28,0,0,0-11.35-4.29A10.67,10.67,0,0,0,18,24.72c-.06,1,0,2.05,0,3.27H3.35C3,21.4,4.33,15.38,8.27,10.13A25,25,0,0,1,40.64,3.27C48.79,7.93,53.45,15,53.6,24.64c.08,5.09.07,10.17.11,15.25C53.72,40.62,53.83,41.36,53.9,42.2Zm7.2,107.21c24.14-.12,46.14-18.88,46.28-46.15.14-27.79-22.64-46.55-46.45-46.55-23.56,0-46.3,18.76-46.24,46.43C14.74,129.71,36,149.3,61.1,149.41Z"/></g></g></svg>