<svg xmlns="http://www.w3.org/2000/svg" viewBox="0 0 169.89 170.24"><defs><style>.cls-1{fill:#411515;}</style></defs><g id="Layer_2" data-name="Layer 2"><g id="Layer_1-2" data-name="Layer 1"><path class="cls-1" d="M139.66,133.84c5,.8,7.32,3,7.22,6.38a6,6,0,0,1-5.3,5.73c-3.54.38-5.69-1.63-7.06-6.85a71.45,71.45,0,0,1-44.26,18.45l1.17,1.86a5.86,5.86,0,0,1-1.12,7.94,5.77,5.77,0,0,1-7.52.05c-2.41-2-2.85-5.08-1.11-8,.27-.45.62-.86,1.29-1.77a80.5,80.5,0,0,1-24-5.54,76.82,76.82,0,0,1-20.82-13.36c0,2.87-.69,5.07-2.82,6.2a8,8,0,0,1-4,.89,5.78,5.78,0,0,1-5.13-5.82c0-3.28,2.27-5.38,7.14-6.27A71,71,0,0,1,15.55,90.31c-1.07.61-1.85,1.13-2.68,1.53a5.77,5.77,0,0,1-7.32-1.7,5.64,5.64,0,0,1,0-7.24,5.83,5.83,0,0,1,7.34-1.63c.76.38,1.45.89,2.56,1.59A71.31,71.31,0,0,1,33.26,39.41c-1.19-.32-2.12-.48-3-.8a6,6,0,0,1-4.05-6.38,6.11,6.11,0,0,1,5.58-5.12,5.88,5.88,0,0,1,6.09,4.45c.19.69.27,1.41.49,2.6A71.41,71.41,0,0,1,82.74,15.51c-2.8-4.83-2.71-7.6.12-9.87a5.68,5.68,0,0,1,7.5.15c2.73,2.35,2.78,5.3-.08,9.68a72.19,72.19,0,0,1,44.53,18.78c.17-2.78.7-4.95,2.76-6.05a8.37,8.37,0,0,1,4-1,5.74,5.74,0,0,1,5.31,5.65c.1,3.36-2,5.41-7.06,6.51a71.65,71.65,0,0,1,17.76,43.37c1.09-.62,1.88-1.12,2.72-1.51a5.81,5.81,0,0,1,7.28,1.82,6.4,6.4,0,0,1,0,7.06,5.81,5.81,0,0,1-7.31,1.72c-.77-.37-1.47-.86-2.61-1.55C156.41,106.77,150.72,121.22,139.66,133.84ZM98.91,66,124,41.29c-5.09-6.07-22.1-13.6-31.31-13.16V63.39ZM80.46,27.76A58.76,58.76,0,0,0,48.8,41L74.18,66l6.28-2.67ZM80.4,145.09V109.64l-6.28-2.52L49,131.84C55.15,138.43,70.63,145,80.4,145.09ZM99.19,107l-6.4,2.65c-.67,5.22-.42,33.29.35,35.67a58.17,58.17,0,0,0,30.63-12.82Zm46.16-26.61a59.66,59.66,0,0,0-12.66-30.8L107.53,75.17l2.17,5.19ZM40.6,49.73C34.31,56,28.15,70.74,28,80.31h35.5c.79-2,1.52-3.79,2.31-5.75Q53.11,62.08,40.6,49.73Zm92.22,73.66A59,59,0,0,0,145.3,92.82H109.59c-.79,2-1.5,3.79-1.93,4.85Zm-92.4.15L65.78,98.47l-2.35-5.58c-5.84-.73-33.38-.44-35.63.39A58.67,58.67,0,0,0,40.42,123.54ZM86.56,98.25A11.71,11.71,0,1,0,74.74,86.4,11.64,11.64,0,0,0,86.56,98.25Z" transform="translate(-1.36)"/><path class="cls-1" d="M140.06,133.7c.29-.07.42-.16.62-.11l.94.21a12.61,12.61,0,0,1,1.85.63,6.65,6.65,0,0,1,3.11,2.51,6.43,6.43,0,0,1-.94,7.64,6.55,6.55,0,0,1-3.59,2,6.29,6.29,0,0,1-4.11-.54,7.06,7.06,0,0,1-2.79-3,18.23,18.23,0,0,1-1.4-3.67l1.29.39a73.46,73.46,0,0,1-20.65,13.43,74.68,74.68,0,0,1-24,5.74l1-2,1,1.59a10,10,0,0,1,1,1.93,7.14,7.14,0,0,1,.18,4.57,7.53,7.53,0,0,1-2.64,3.74,7.19,7.19,0,0,1-8.78.11A7.5,7.5,0,0,1,79.39,165a7.37,7.37,0,0,1,.11-4.69,8.22,8.22,0,0,1,1-2l1.17-1.64,1.16,2.58a82.55,82.55,0,0,1-24.62-5.45A79.64,79.64,0,0,1,36.78,140.4l3.53-1.62a12.07,12.07,0,0,1-.73,4.55,7,7,0,0,1-3.66,3.82,10.16,10.16,0,0,1-4.73.95,7.49,7.49,0,0,1-4.83-2.21A8.46,8.46,0,0,1,23.89,140a8.19,8.19,0,0,1,.1-1.29,7.44,7.44,0,0,1,.88-2.59,8.56,8.56,0,0,1,3.84-3.38,17.16,17.16,0,0,1,4.19-1.32l-1.37,3.9a76.24,76.24,0,0,1-13.17-20.8,74.68,74.68,0,0,1-5.58-24.07l4.15,2.24-1.74,1-.88.51-.22.12-.3.14a5.73,5.73,0,0,1-.62.25,8.51,8.51,0,0,1-5.49.2A8.81,8.81,0,0,1,3.2,91.77a8.49,8.49,0,0,1-.06-10.48A9,9,0,0,1,7.63,78a8.79,8.79,0,0,1,5.6.13,10.53,10.53,0,0,1,2.28,1.13l1.58,1-4.61,2.37A74.53,74.53,0,0,1,30.69,37.18L32.4,42.7l-1.82-.43a12,12,0,0,1-2.44-.84,9.64,9.64,0,0,1-4.25-3.93,9.22,9.22,0,0,1-1.11-5.87,9.34,9.34,0,0,1,2.71-5.3,9.67,9.67,0,0,1,5.25-2.7,9.8,9.8,0,0,1,3,0,9.33,9.33,0,0,1,2.91,1,9.49,9.49,0,0,1,4.13,4.33,9.74,9.74,0,0,1,.54,1.35,10.75,10.75,0,0,1,.34,1.32L42,33.48l-6.09-2.07A78.18,78.18,0,0,1,57.42,17.35a77.16,77.16,0,0,1,25-6.05l-3.38,6.32a23.13,23.13,0,0,1-2-4.14,13,13,0,0,1-.62-2.75,9.39,9.39,0,0,1,.25-3.41,8.83,8.83,0,0,1,1.59-3.15,12.15,12.15,0,0,1,1-1.17,13.34,13.34,0,0,1,1.11-.94A10,10,0,0,1,86.55,0a10.2,10.2,0,0,1,6.07,2.05,12.39,12.39,0,0,1,1.13,1,11.5,11.5,0,0,1,1,1.14,9.22,9.22,0,0,1,2,6.52,11.51,11.51,0,0,1-.62,2.89A19.6,19.6,0,0,1,94,17.87l-3.38-6.79A76.53,76.53,0,0,1,115.87,17a78.36,78.36,0,0,1,21.75,14.12l-7,2.89a16.09,16.09,0,0,1,1-5A9.05,9.05,0,0,1,133.57,26a9.16,9.16,0,0,1,2.84-1.87,11.85,11.85,0,0,1,5.65-1A9.24,9.24,0,0,1,148,25.93a10,10,0,0,1,2.77,5.56,8.26,8.26,0,0,1,.11,1.55,9.77,9.77,0,0,1-.1,1.5,9.3,9.3,0,0,1-1.09,3.19,10.06,10.06,0,0,1-4.56,4,20.32,20.32,0,0,1-4.47,1.42l2.1-6.3a75.75,75.75,0,0,1,12.81,21.4,74,74,0,0,1,3.52,12,80,80,0,0,1,1.47,12.31l-4.41-2.4,1.77-.93a13.08,13.08,0,0,1,2-.94,8.61,8.61,0,0,1,9.8,3.12,8.44,8.44,0,0,1,1.53,5.16,8.6,8.6,0,0,1-1.66,5,8.47,8.47,0,0,1-4.32,2.93,8.23,8.23,0,0,1-5.15-.25,10.91,10.91,0,0,1-2.06-1.08l-1.56-1,3.31-1.72a76,76,0,0,1-6.19,23.67,70.43,70.43,0,0,1-6,10.62c-.59.83-1.16,1.66-1.77,2.47L144,129.6l-2,2.29C141.47,132.5,140.8,133,140.06,133.7Zm-.8.29c.55-.85,1.17-1.86,1.89-2.78l1.73-2.45,1.62-2.49,1.52-2.54A70.47,70.47,0,0,0,151,113a76.2,76.2,0,0,0,4.45-22.92l.16-3.46,3.15,1.74a18.78,18.78,0,0,0,2.92,1.53,3.37,3.37,0,0,0,2.2,0,3.53,3.53,0,0,0,1.69-1.33,3.67,3.67,0,0,0,.44-2,3.18,3.18,0,0,0-.6-1.89,3.15,3.15,0,0,0-1.66-1.09,3,3,0,0,0-1.89.14,11,11,0,0,0-1.32.73l-1.5.89-4,2.35-.44-4.75a72.82,72.82,0,0,0-5.47-22.06,70.64,70.64,0,0,0-12.25-19l-4.28-4.83L139,35.6a12,12,0,0,0,2.71-.92c.73-.36,1-.7,1.08-.85a1.43,1.43,0,0,0,.1-.38c0-.11,0-.23,0-.38a1.72,1.72,0,0,0,0-.34,2,2,0,0,0-.59-1.07,1.16,1.16,0,0,0-.78-.35,4,4,0,0,0-1.7.42c-.38.19-.29.17-.31.19s0,0-.09.22a9.22,9.22,0,0,0-.35,2.38l-.36,8.7L132,37.41a77.47,77.47,0,0,0-9.31-7,68.14,68.14,0,0,0-10.23-5.34,65.73,65.73,0,0,0-11-3.52A78.66,78.66,0,0,0,90,19.86l-7.53-.59,4.15-6.21a11.39,11.39,0,0,0,1.25-2.35c.25-.68.21-1,.19-1a.42.42,0,0,0-.12-.24c-.06-.07-.13-.16-.23-.26S87.49,9,87.41,9a1.55,1.55,0,0,0-.89-.36,1.44,1.44,0,0,0-.91.32c-.07,0-.22.19-.32.26a1.9,1.9,0,0,0-.21.23L85,9.57a1.5,1.5,0,0,0,0,.3,4.58,4.58,0,0,0,.21.9,14.27,14.27,0,0,0,1.23,2.62l3.37,6L83,19.71A67.36,67.36,0,0,0,40.86,36.9l-5,4.41-1.08-6.47L34.46,33a2.13,2.13,0,0,0-.12-.51,3,3,0,0,0-.14-.42,2.33,2.33,0,0,0-1-1.08,2.28,2.28,0,0,0-1.41-.27,2.57,2.57,0,0,0-1.38.68,2.34,2.34,0,0,0-.73,1.29A2.21,2.21,0,0,0,30,34.1a2.66,2.66,0,0,0,1.2,1.14,4.89,4.89,0,0,0,1.12.4l1.86.47,5.37,1.38-3.66,4.15A67.95,67.95,0,0,0,18.51,83.05l-.37,5.15L13.9,85.42l-1.6-1a4.9,4.9,0,0,0-1.08-.58,2.89,2.89,0,0,0-1.85-.1,3,3,0,0,0-1.54,1.1,2.9,2.9,0,0,0-.68,1.76,3,3,0,0,0,.64,1.8,3.12,3.12,0,0,0,1.55,1.18,2.92,2.92,0,0,0,1.93-.06,1.39,1.39,0,0,0,.26-.1l.13-.05.19-.11.77-.44,1.54-.86,3.93-2.21.22,4.45a69.74,69.74,0,0,0,4.81,22.43,71.56,71.56,0,0,0,12,19.65l2.75,3.23-4.13.67c-2.21.36-4.26,1.21-4.87,2.34a2.79,2.79,0,0,0-.35,1,3.73,3.73,0,0,0-.05.6,3.64,3.64,0,0,0,0,.57,3.87,3.87,0,0,0,1,2.1,3.05,3.05,0,0,0,1.89.94,5.91,5.91,0,0,0,2.63-.49,2.64,2.64,0,0,0,1.49-1.48,7.93,7.93,0,0,0,.47-2.9l.05-4.7,3.49,3.09a75.85,75.85,0,0,0,20.08,13.21,79.16,79.16,0,0,0,23.46,5.68l2.87.3-1.71,2.29-1.06,1.41a4.8,4.8,0,0,0-.72,1.35,4.26,4.26,0,0,0-.15,2.72,4.37,4.37,0,0,0,6.84,2.28,4.7,4.7,0,0,0,1.71-2.28,4.4,4.4,0,0,0-.07-2.84,6.55,6.55,0,0,0-.7-1.44l-1-1.6L88,156.36l2.19-.12a72.55,72.55,0,0,0,23.39-5.07A73,73,0,0,0,134,138.51l1-.84.31,1.23a16.59,16.59,0,0,0,1.19,3.39,5.67,5.67,0,0,0,2.15,2.49,5,5,0,0,0,3.21.47,5.26,5.26,0,0,0,2.94-1.51,5.48,5.48,0,0,0,1.5-3,5.07,5.07,0,0,0-.57-3.28,5.61,5.61,0,0,0-2.62-2.19,10.64,10.64,0,0,0-1.69-.62l-.89-.23A4.46,4.46,0,0,1,139.26,134Z" transform="translate(-1.36)"/><path class="cls-1" d="M98.83,65.6c8.15-9,15.8-17.77,23.43-26.09l-.16,3.38a28.26,28.26,0,0,0-6.4-4.42,60.34,60.34,0,0,0-7.51-3.37,50.08,50.08,0,0,0-7.86-2.27,25.55,25.55,0,0,0-7.44-.5l4-4.2c.15,2.94.26,5.87.22,8.81s-.2,5.88-.39,8.82a168.54,168.54,0,0,1-2.14,17.63l-1.15-1.75c.79.58,1.61,1.16,2.5,1.84S97.78,64.85,98.83,65.6Zm.16.83c-1-.12-2.13-.29-3.32-.5s-2.44-.49-3.72-.79l-.88-.21-.28-1.54a165.87,165.87,0,0,1-2.13-17.63c-.2-2.94-.37-5.88-.4-8.82s.08-5.87.22-8.81l.21-4.28,3.8.07a34.26,34.26,0,0,1,9.68,1.82,70.07,70.07,0,0,1,8.54,3.34,66,66,0,0,1,8,4.4c.64.42,1.28.83,1.9,1.3s1.24.92,1.84,1.44a23.27,23.27,0,0,1,3.48,3.47l1.53,1.85-1.69,1.52C116.65,51.23,107.58,59,99,66.43Z" transform="translate(-1.36)"/><path class="cls-1" d="M80.17,28.08c-.68.2-1.24.41-1.8.53l-2.09.49c-1.4.35-2.78.75-4.14,1.18A57.51,57.51,0,0,0,50.36,42.93l.16-3.65c4.45,3.94,8.85,7.93,13.25,11.93,2.2,2,4.39,4,6.63,5.95L77.13,63l-4.6-.87,3.08-1.49,3.11-1.4L76,63.34A117,117,0,0,1,77.33,47c.38-2.86.84-5.82,1.32-9Zm.57-.64c.55,2.4,1,5.07,1.52,7.86s.94,5.77,1.33,8.84a150.47,150.47,0,0,1,1.3,19.2l0,3-2.68,1.08L79,68.68l-3.2,1.2L73,71,71.23,69l-6-6.64c-2-2.2-4-4.37-6.06-6.54-4.06-4.33-8.12-8.66-12.13-13l-1.92-2.1,2.08-1.55a61.17,61.17,0,0,1,7.6-4.86,56.62,56.62,0,0,1,16.81-5.94c1.45-.27,2.91-.48,4.37-.65l2.21-.21C79.1,27.4,80,27.43,80.74,27.44Z" transform="translate(-1.36)"/><path class="cls-1" d="M80.1,144.79c-.32-6.17-.73-12.18-1.13-18s-.78-11.52-1.06-17.13L79.47,112l-6.4-2.21,3-.61L64.09,122l-5.89,6.57q-2.93,3.3-6.05,6.4l.15-6.16A40.39,40.39,0,0,0,58,133.58c2.18,1.52,4.52,2.95,6.92,4.3s4.9,2.6,7.46,3.76c1.28.56,2.58,1.14,3.91,1.63.66.27,1.33.49,2,.74l.25.09.17.07.37.19A6.63,6.63,0,0,0,80.1,144.79Zm.6.6c-.33.1-.73.22-1.19.33l-.71.13-.37.05-.28,0c-.75,0-1.53.17-2.29.18a38.71,38.71,0,0,1-4.57-.16,45.61,45.61,0,0,1-9-1.8,48.94,48.94,0,0,1-8.57-3.49,30.15,30.15,0,0,1-8-5.81l-3-3.13,3.11-3q3.15-3.08,6.49-6l6.65-5.79L72.13,105.1l1.48-1.34,1.57.73,6.15,2.84,1.64.75-.07,1.56c-.28,6.21-.67,12.35-1.07,18.33S81,139.75,80.7,145.39Z" transform="translate(-1.36)"/><path class="cls-1" d="M99.1,107.38l-6,3.07.55-.72c-.09,2.86.07,5.87.21,8.83s.29,5.93.48,8.89.38,5.92.61,8.87c.12,1.47.24,3,.39,4.4.07.73.16,1.44.24,2.15s.24,1.5.25,1.54l-3.06-2A58.09,58.09,0,0,0,108,137.81a49.76,49.76,0,0,0,6.78-4c2.12-1.51,4.18-3.09,6.14-4.77l-.37,6.49a134.2,134.2,0,0,1-10.76-12.82c-1.75-2.31-3.49-4.72-5.27-7.26S101,110.28,99.1,107.38Zm.17-.83c2.23,1.36,4.52,3,6.84,4.67s4.68,3.55,7,5.49A157.52,157.52,0,0,1,127,129.4l3.36,3.51-3.73,3a45,45,0,0,1-7.58,4.94,62.45,62.45,0,0,1-8.25,3.57,66.69,66.69,0,0,1-17.27,3.73l-2.59.21-.48-2.17a14.57,14.57,0,0,1-.3-2.88c0-.78,0-1.56,0-2.31,0-1.52,0-3,.05-4.52.07-3,.17-6,.32-9s.32-6,.52-9,.43-6,.91-9L92,109l.46-.16C94.8,108,97.1,107.26,99.27,106.55Z" transform="translate(-1.36)"/><path class="cls-1" d="M145,80.08c-.21-.66-.42-1.2-.54-1.74l-.49-2c-.35-1.35-.74-2.68-1.16-4a60.12,60.12,0,0,0-3-7.68,58.35,58.35,0,0,0-9-13.56l3.63.19c-4,4.5-8,8.94-12,13.38-2,2.22-4,4.44-6,6.69l-5.89,6.8.88-4.59,1.21,2.54,1.15,2.57-4.08-2.71a108.59,108.59,0,0,1,16.4,1.26c2.86.38,5.83.85,9,1.33Zm.63.56c-2.39.55-5.06,1-7.86,1.54s-5.78.95-8.86,1.34a144.32,144.32,0,0,1-19.25,1.26l-3,0-1-2.68-1-2.61-1-2.65-1-2.86,1.92-1.73,6.7-6c2.22-2,4.4-4.06,6.58-6.11,4.37-4.1,8.74-8.19,13.17-12.23l2.1-1.93,1.53,2.12a58.8,58.8,0,0,1,8,15.44,59.49,59.49,0,0,1,2.18,8.34c.26,1.4.46,2.82.63,4.23l.21,2.14A22.5,22.5,0,0,1,145.67,80.64Z" transform="translate(-1.36)"/><path class="cls-1" d="M40.6,50.15l-.46.78c-.15.24-.3.41-.51.72-.39.58-.81,1.12-1.15,1.72-.74,1.17-1.4,2.38-2,3.61a61.82,61.82,0,0,0-3.17,7.62,58.06,58.06,0,0,0-2.14,7.9,37.52,37.52,0,0,0-.77,7.86L28,77.88c5.92-.32,11.83-.57,17.75-.81,3-.12,5.92-.24,8.87-.41l8.88-.56-3.91,2.64,1-2.93,1.09-2.9,1,4.8A117,117,0,0,1,51.87,65.34c-1.76-2.26-3.54-4.65-5.4-7.17Zm0-.85c2.12,1.28,4.38,2.8,6.71,4.4s4.75,3.37,7.18,5.25A148.36,148.36,0,0,1,68.87,71.41L71,73.56l-1.14,2.65-1.22,2.85-1.29,2.82-1.28,2.8-2.62-.16L54.57,84c-3-.17-5.91-.29-8.87-.41-5.92-.24-11.83-.49-17.75-.81l-2.61-.14.18-2.34a38.7,38.7,0,0,1,1.78-8.75,62.54,62.54,0,0,1,3.19-8.06A61.35,61.35,0,0,1,34.75,56a38.93,38.93,0,0,1,2.57-3.44c.44-.57,1-1.08,1.43-1.61a10.69,10.69,0,0,1,.89-.85C40,49.79,40.3,49.54,40.6,49.3Z" transform="translate(-1.36)"/><path class="cls-1" d="M132.8,123c.31-.6.53-1.12.83-1.58l1.07-1.77,1-1.8.95-1.83a56.4,56.4,0,0,0,3.17-7.55,59.75,59.75,0,0,0,3-15.87l2.41,2.69q-8.93.48-17.86.81c-3,.13-6,.24-8.92.42l-8.93.56,3.92-2.66-.85,2.47c-.29.82-.6,1.63-.9,2.45l-.94-4.71a106.72,106.72,0,0,1,10.69,12.68c1.74,2.34,3.5,4.81,5.36,7.41Zm0,.85c-2.07-1.33-4.31-2.9-6.65-4.57s-4.76-3.5-7.21-5.45a139.54,139.54,0,0,1-14.47-13l-2-2.17,1.09-2.54c.34-.8.67-1.61,1-2.4l1.08-2.38,1.27-2.83,2.65.16,8.93.57c3,.17,6,.29,8.92.41,6,.24,11.91.5,17.86.82l2.81.15-.4,2.54a60.38,60.38,0,0,1-5.07,16.48,58.38,58.38,0,0,1-4.25,7.42c-.8,1.17-1.64,2.31-2.51,3.43l-1.34,1.64A20.41,20.41,0,0,1,132.84,123.81Z" transform="translate(-1.36)"/><path class="cls-1" d="M40.44,123.11c4.21-4.6,8.22-9.16,12.11-13.57S60.2,100.83,64,96.67l-.55,2.78L60.82,94l2.26,1.71c-1.28-.07-2.76-.08-4.21-.07s-2.92,0-4.39.09q-4.42.11-8.85.37c-3,.2-5.9.45-8.82.73l-4.34.38c-.73,0-1.41.12-2.1.19l-.92.1-.22,0h0a.23.23,0,0,0,.14-.08l2.86-4.69c.29,2.57.62,5.13,1.09,7.67s1,5.08,1.76,7.61,1.56,5,2.52,7.57c.5,1.26,1,2.54,1.54,3.8l.79,1.9A17.07,17.07,0,0,0,40.44,123.11Zm0,.85a14,14,0,0,1-2-1.48L36.78,121c-1-1-2-2.05-3-3.17a44.13,44.13,0,0,1-4.94-7.25A48.5,48.5,0,0,1,23.4,93.82l-.48-3.66,3.35-1a10.06,10.06,0,0,1,1.23-.31l.31-.06.19,0,.33,0c.43,0,.93-.12,1.3-.13.8,0,1.6-.08,2.36-.1,1.54,0,3.05,0,4.57,0,3,.1,6,.24,9,.39l9,.42c1.5.08,3,.18,4.52.29s3,.24,4.69.48l1.73.25L66,91.79l2.08,5.7.62,1.72-1.18,1.06c-4.65,4.2-9.34,8.27-13.91,12.2S44.64,120.21,40.39,124Z" transform="translate(-1.36)"/><path class="cls-1" d="M86.56,97.82A9.05,9.05,0,0,0,90.91,97a8.92,8.92,0,0,0,3.35-2.79,11.06,11.06,0,0,0,1.89-7.68,9.06,9.06,0,0,0-3.28-6.31,8.77,8.77,0,0,0-6.37-2,7.42,7.42,0,0,0-5.35,3A11,11,0,0,0,79,86.56a14.85,14.85,0,0,0-.09,3.15,10.56,10.56,0,0,0,.9,3.54,7.92,7.92,0,0,0,6.75,4.57Zm0,.85a20,20,0,0,1-4.9-.32,15.85,15.85,0,0,1-5-1.86,12.53,12.53,0,0,1-4.24-4.06,12.22,12.22,0,0,1-1.88-5.84,13.78,13.78,0,0,1,4.71-11.31A16,16,0,0,1,86.5,71.44a15,15,0,0,1,10.34,4.75,14.09,14.09,0,0,1,3.57,10.31,12.08,12.08,0,0,1-1.51,5.12,12.71,12.71,0,0,1-3.38,3.85A16.44,16.44,0,0,1,86.56,98.67Z" transform="translate(-1.36)"/></g></g></svg>