<svg xmlns="http://www.w3.org/2000/svg" viewBox="0 0 144.15 144.19"><defs><style>.cls-1{fill:#401514;}</style></defs><g id="Layer_2" data-name="Layer 2"><g id="Layer_1-2" data-name="Layer 1"><path class="cls-1" d="M143.1,132.48c-.57-4.32-1.33-8.61-2.31-12.86l-.83-3.38c-.28-1.13-.53-2.27-.88-3.36-.66-2.21-1.27-4.43-2-6.63l-2.26-6.55q-1.26-3.23-2.57-6.44a152.82,152.82,0,0,0-13.17-24.45,139.08,139.08,0,0,0-17.54-21.54L99.12,44.8c-.41-.4-.8-.83-1.23-1.21l-1.3-1.16-5.18-4.61C89.63,36.35,87.8,35,86,33.51c-.91-.7-1.8-1.44-2.73-2.12l-2.84-2A178.29,178.29,0,0,0,56.77,15.37l-6.22-2.86-3.11-1.43c-1-.47-2.14-.87-3.21-1.3L41,8.49c-1.08-.42-2.19-.77-3.28-1.16L34.45,6.2c-1.11-.35-2.23-.65-3.34-1A132.77,132.77,0,0,0,3.8.24C2.54.14,1.27.06,0,0V13l1.11.07c.52,0,1,.11,1.56.17a124.82,124.82,0,0,1,24.52,5c1,.31,2,.6,3,.93l2.94,1.08c1,.36,2,.69,2.94,1.08L39,22.56c1,.41,1.93.78,2.89,1.23l2.87,1.38,5.75,2.76c1.88,1,3.72,2,5.57,3.05l2.79,1.53c.94.49,1.8,1.1,2.7,1.64l5.38,3.35c1.76,1.15,3.44,2.42,5.17,3.62L74.65,43c.85.62,1.65,1.31,2.47,2,1.63,1.32,3.29,2.61,4.89,4l4.65,4.22,1.16,1.06c.39.35.74.74,1.11,1.11l2.18,2.25A132.77,132.77,0,0,1,118.61,99l2.34,5.83,2.07,5.94c.65,2,1.21,4,1.82,6,.33,1,.55,2,.81,3l.75,3q1.11,4.75,1.84,9.57.87,5.82,1.21,11.71h14.7C144,140.27,143.61,136.37,143.1,132.48Z"/></g></g></svg>