<svg xmlns="http://www.w3.org/2000/svg" viewBox="0 0 168.5 168.37"><defs><style>.cls-1{fill:#411515;}</style></defs><g id="Layer_2" data-name="Layer 2"><g id="Layer_1-2" data-name="Layer 1"><path class="cls-1" d="M47.25,50.64H34.17c-.12-1.31-.32-2.55-.32-3.79,0-6.71,0-13.42-.05-20.12a22.48,22.48,0,0,0-.71-6c-1.41-4.75-5.87-7.33-10.94-6.63A9.82,9.82,0,0,0,22,33.43c1.69.31,3.41.46,5.17.7V46.91A23.19,23.19,0,0,1,.71,29.14,23.77,23.77,0,0,1,17.12,1.06c14.32-4.1,29,5.54,30,20.32C47.78,30.93,47.25,40.56,47.25,50.64Z"/><path class="cls-1" d="M50.37,121.23v13.59H42c-6.26,0-12.54-.2-18.79.11a9.8,9.8,0,1,0,1.68,19.52,9.63,9.63,0,0,0,8.67-8c.3-1.56.35-3.17.54-5.05h13a22,22,0,0,1-.93,10.89C42.47,163.43,31.43,169.93,19.6,168,8.68,166.3.23,156.32,0,144.94a23.64,23.64,0,0,1,19.59-23.42,28.38,28.38,0,0,1,4.77-.5c7.58,0,15.15,0,22.73,0C48.12,121,49.11,121.14,50.37,121.23Z"/><path class="cls-1" d="M117.86,46.85v-13c5.7,0,11.16,0,16.61-.1,3.64,0,7.29,0,10.91-.23a9.51,9.51,0,0,0,9.2-9.7A9.82,9.82,0,0,0,135,22.49c-.23,1.42-.35,2.87-.55,4.54H121.57c-1.15-5.67.16-10.86,3.07-15.71a23.68,23.68,0,0,1,43.62,15.4C166.72,38,157.82,46.77,146.67,47.25c-9,.39-18.06.09-27.08.08A8.92,8.92,0,0,1,117.86,46.85Z"/><path class="cls-1" d="M141.52,134.6V121.52c11.22-2.35,25.06,6.14,26.77,20.54,1.51,12.67-7.92,24.8-20.39,26.07-15,1.53-26.58-8.75-26.72-23.73-.08-7.72,0-15.44,0-23.16,0-1,.11-2,.18-3.22H134.4a31.24,31.24,0,0,1,.35,3.31c0,6.71,0,13.41,0,20.11a29.38,29.38,0,0,0,.38,5.22c1,5.12,5.22,8.22,10.48,7.81a9.6,9.6,0,0,0,8.93-9.12A9.79,9.79,0,0,0,146.47,135C145,134.75,143.57,134.76,141.52,134.6Z"/><path class="cls-1" d="M50.38,57.5V70.84c-4,0-8,.07-12,.08s-7.87,0-11.81,0H14.08V97.4l13.11.42V111c-5.57,0-11,.53-16.23-.14-5.51-.71-9-4.54-10.39-10a20.1,20.1,0,0,1-.52-4.77C0,88.26,0,80.38,0,72.5c.1-9.88,5.39-15.18,15.16-15.22,10.35,0,20.71,0,31.06,0C47.55,57.29,48.83,57.41,50.38,57.5Z"/><path class="cls-1" d="M154.54,97.42V71.21h-12.9c-.73-4.71-.33-9-.35-13.88,6,.09,11.83-.77,17.52.58a12.9,12.9,0,0,1,9.54,12.25c.18,9.47.22,19,0,28.42-.17,6.59-5.38,12.3-11.85,12.47-12.65.35-25.31.1-38.29.1V97.91C130.05,97.14,142.08,98,154.54,97.42Z"/><path class="cls-1" d="M111.06,50.63H97.9c-.58-12.11,0-24.12-.35-36.4H71.48c-1.46,4-.12,8.26-.88,12.7H57.83a15.49,15.49,0,0,1-.43-2.64c-.06-3.64-.1-7.28,0-10.92A13.2,13.2,0,0,1,70.38.15C79.55-.06,88.74,0,97.91.13c7.38.14,12.83,5.54,13.27,13,.24,4.07.1,8.15.1,12.23,0,6.85,0,13.69,0,20.54C111.27,47.32,111.15,48.75,111.06,50.63Z"/><path class="cls-1" d="M111.22,141.35c0,5.91.73,11.72-.56,17.43a12.42,12.42,0,0,1-11.4,9.36c-10.05.21-20.11.26-30.16,0a12.34,12.34,0,0,1-11.61-11.66c-.25-12.53-.05-25.06,0-37.59,0-.26.24-.51.44-.9h13v36.53H97.6V141.35Z"/><path class="cls-1" d="M47.36,114.56H34c-.36-12.29-.07-24.42-.19-36.83H47.39C47.4,89.94,47.42,102.07,47.36,114.56Z"/><path class="cls-1" d="M111.27,114.54H98V77.71h13.26C111.31,90,111.28,102.11,111.27,114.54Z"/><path class="cls-1" d="M54.46,97.91H90.68v12.65c-3.08.87-29.05,1.16-36,.4C53.85,107.9,53.73,102.83,54.46,97.91Z"/><path class="cls-1" d="M114.32,121v13.49H77.81c-.6-4.23-.13-8.52-.28-13.43C89.8,120.91,101.79,121,114.32,121Z"/><path class="cls-1" d="M77.52,57.5h36.73V70.84c-12,.52-24-.12-36.22.11C77.11,66.38,77.75,62.1,77.52,57.5Z"/><path class="cls-1" d="M90.72,34V47.09H54.29V34Z"/><path class="cls-1" d="M70.78,54.3V90.87H58.11c-.92-2.81-1.24-29.26-.33-36.65A59.51,59.51,0,0,1,70.78,54.3Z"/><path class="cls-1" d="M134.51,54.3V90.88H121.38c-.46-12-.1-24.13-.24-36.58Z"/></g></g></svg>