<svg xmlns="http://www.w3.org/2000/svg" viewBox="0 0 144.3 144.35"><defs><style>.cls-1{fill:#401514;}</style></defs><g id="Layer_2" data-name="Layer 2"><g id="Layer_1-2" data-name="Layer 1"><path class="cls-1" d="M144.27,3.05c0-1-.07-2-.12-3h-14.7c.07,1.16.12,2.32.16,3.48a129.65,129.65,0,0,1-7.94,49.12A131.48,131.48,0,0,1,95.79,95.29a129.22,129.22,0,0,1-18.67,16.84,129.1,129.1,0,0,1-21.61,13,110.68,110.68,0,0,1-11.62,4.75c-2,.74-4,1.23-5.93,1.84-2,.45-4,1-6,1.31l-1.51.26-.75.13-.75.08-3,.33c-1,.07-2,.08-3,.13-.5,0-1,.06-1.51,0l-1.49-.06-1.5-.06c-.25,0-.5,0-.74,0l-.74-.1L14,133.37A45.46,45.46,0,0,1,8.23,132a44.47,44.47,0,0,1-5.52-2.11c-.89-.5-1.81-1-2.71-1.46v10.66a39.64,39.64,0,0,0,5.12,2.16,55,55,0,0,0,7,2l3.59.6.9.14.9.08,1.8.14,1.81.14c.6,0,1.2,0,1.8,0,1.2,0,2.4,0,3.59,0l3.57-.26L31,144l.88-.12,1.76-.24c2.37-.27,4.64-.81,7-1.25,2.26-.6,4.56-1.1,6.76-1.83a113.59,113.59,0,0,0,13-4.84A140,140,0,0,0,84.4,122.24a140.67,140.67,0,0,0,21-18,141.72,141.72,0,0,0,29.47-46.64,137.84,137.84,0,0,0,7.38-26.78A144.78,144.78,0,0,0,144.27,3.05Z"/></g></g></svg>