<svg xmlns="http://www.w3.org/2000/svg" viewBox="0 0 24.03 20.45"><defs><style>.cls-1{fill:#231f20;}.cls-2{fill:none;stroke:#231f20;stroke-linecap:round;stroke-miterlimit:10;}</style></defs><g id="Layer_2" data-name="Layer 2"><g id="Layer_1-2" data-name="Layer 1"><path class="cls-1" d="M5.48,2.42a37.9,37.9,0,0,0-.07,4,14.43,14.43,0,0,0,.69,3.83,14.35,14.35,0,0,1,.8,4.06,9.58,9.58,0,0,0,.53,3.76.49.49,0,0,1-.22.67.51.51,0,0,1-.67-.22h0a10.12,10.12,0,0,1-.64-4.16,13.57,13.57,0,0,0-.76-3.81A15.55,15.55,0,0,1,4.4,6.45a39.46,39.46,0,0,1,.08-4.08A.5.5,0,0,1,5,1.9.49.49,0,0,1,5.48,2.42Z"/><path class="cls-1" d="M8.43.62c.07,1.43,0,2.83.06,4.25A28.4,28.4,0,0,0,9,9.08a30.35,30.35,0,0,0,1,4.12,8.6,8.6,0,0,1,.5,4.54.51.51,0,0,1-.61.37.5.5,0,0,1-.37-.58h0a7.87,7.87,0,0,0-.68-3.94,30.78,30.78,0,0,1-1.2-4.25,29.68,29.68,0,0,1-.54-4.41A15.2,15.2,0,0,1,7.44.51.5.5,0,0,1,8.05.14a.5.5,0,0,1,.38.47Z"/><path class="cls-1" d="M11.81,19.91a37.72,37.72,0,0,0-.16-8,35.79,35.79,0,0,0-.73-4,27.39,27.39,0,0,1-.92-4,.5.5,0,1,1,1-.07h0a26.78,26.78,0,0,0,.89,3.88,39.73,39.73,0,0,1,.75,4.06A38.48,38.48,0,0,1,12.8,20a.5.5,0,1,1-1-.09Z"/><path class="cls-1" d="M14.08.57A20.68,20.68,0,0,0,14,4.26c.05,1.23.13,2.45.26,3.68a48,48,0,0,0,1.33,7.24.5.5,0,0,1-1,.26v0A66,66,0,0,1,13.45,8c-.12-1.24-.2-2.48-.23-3.73s-.05-2.49-.14-3.74A.5.5,0,0,1,13.55,0a.51.51,0,0,1,.54.47A.34.34,0,0,1,14.08.57Z"/><path class="cls-1" d="M.18,7.68c.2-.26.4-.21.6-.21h.6l1.2,0L5,7.65c1.6.1,3.19.23,4.78.42a84,84,0,0,1,9.44,1.65.5.5,0,0,1,.37.6.51.51,0,0,1-.58.38Q14.31,9.86,9.6,9.41C8,9.26,6.46,9.13,4.89,9l-2.36-.1-1.19,0H.75a.59.59,0,0,1-.59-.22h0A.81.81,0,0,1,.18,7.68Z"/><path class="cls-2" d="M22.56.8a72.45,72.45,0,0,0,1,17.71"/></g></g></svg>