<svg xmlns="http://www.w3.org/2000/svg" viewBox="0 0 10.45 20.86"><defs><style>.cls-1{fill:none;stroke:#3f1513;stroke-linecap:round;stroke-miterlimit:10;}</style></defs><g id="Layer_2" data-name="Layer 2"><g id="Layer_1-2" data-name="Layer 1"><path class="cls-1" d="M.67.5a72.5,72.5,0,0,0,1,17.71"/><path class="cls-1" d="M2.67,4.56c-.45,2,.44,3.93.72,5.92a42.1,42.1,0,0,1,.13,4.21,34.61,34.61,0,0,0,.8,5.45"/><path class="cls-1" d="M4.64,1.22C4.36,4.16,5.55,7,6,9.93c.39,2.73.1,5.57.86,8.22"/><path class="cls-1" d="M7.66,3.16C7.6,5.24,8.46,7.23,9,9.24a41,41,0,0,1,.93,11.12"/></g></g></svg>