<svg xmlns="http://www.w3.org/2000/svg" viewBox="0 0 170.83 170.74"><defs><style>.cls-1{fill:#411515;}</style></defs><g id="Layer_2" data-name="Layer 2"><g id="Layer_1-2" data-name="Layer 1"><path class="cls-1" d="M85.33,170.74A85.5,85.5,0,0,1,0,84.9C.13,38.07,38.34,0,85.31,0a85.37,85.37,0,1,1,0,170.74ZM126.33,19c-.67-3.76-4.36-3.39-6.63-5.18-5,3.64-9.52,7.25-11.62,14a46.74,46.74,0,0,0,11.31-5.08c2.3-1.35,4.69-2.55,7-3.82C118,28.74,107.1,34.5,94.26,37.43a82,82,0,0,0-.12,16.17c1.39-1.62,2.25-2.7,3.2-3.71,7.31-7.75,14.93-15,26.37-16a5.11,5.11,0,0,0,3.17-1.81c3-3.81,3.15-8.1,1.4-12.48C128.12,19.22,127,19.21,126.33,19Zm25.34,26.19c-8.18,13-30.79,17.89-45.37,9.9-2.72,3.61-3.28,7.71-2.85,12.06a2.94,2.94,0,0,0,.9.06,11.34,11.34,0,0,0,1.57-.66c10.18-4.8,20.61-6.21,31.45-2.41,5.13,1.8,9.31-.14,12.69-3.77,3.63-3.92,4.17-8.89,3.45-14-.08-.59-1-1.06-1.58-1.59A10.29,10.29,0,0,0,149,43.69c-7.52-.32-13.53,3.52-19.52,7.34-.59.38-.87,1.23-1.57,2.27a35.54,35.54,0,0,0,19.36-5.65C148.7,46.77,150.2,46,151.67,45.21ZM16.14,48q.86,3.41,1.72,6.82c1.64,6.48,8.94,12,16.57,9.13,9.69-3.6,19.33-2.17,28.7,1.75L67,67.34c.88-5.65.46-7.62-2.35-11.94C46.74,62.17,31,59.77,18.2,44.61,17.47,46,16.87,47,16.27,48.12a31,31,0,0,0-2.91,4.31A57.81,57.81,0,0,0,8.19,68.52l8.33-7.24C16.39,56.73,16.27,52.37,16.14,48Zm79.52,58.42c.17,1.49.34,4.21.84,6.85,1.78,9.36,6.31,17,14.36,22.34,14,9.22,33.89,6,42.6-9.77,2.54-4.59,4.61-9.44,6.7-14.26a12.09,12.09,0,0,0,.91-5,45.31,45.31,0,0,0-4.38-18.55C150.36,74.94,136.29,70.4,126,71.42,109.3,73.07,95.63,88.51,95.66,106.43Zm-20.51-1.65c.87-16.59-17-37.19-39-32.93-16.59,3.22-29.54,21-26,37.56A46.75,46.75,0,0,0,21,130.93c14,15.62,38.31,11.54,48.41-4.84C73.36,119.7,75.06,112.8,75.15,104.78ZM43.24,18.09a13.59,13.59,0,0,0-.93,11.12c1,2.9,2.81,4.71,6.15,5A28.06,28.06,0,0,1,65.17,42c3.79,3.51,7.52,7.09,11.42,10.78V37.32C63.1,34.71,52.57,27.85,43.24,18.09Zm35.14,4.12c.71-6.1-1.91-10.33-5.62-14.06a2.91,2.91,0,0,0-2.3-.6c-6,1.19-11.86,2.61-17.66,5.78C61,16.74,66.34,22.62,70.59,29.74c1.82.31,3.55.54,5-1.09C68,21.17,65.58,16.86,66.24,12,68.85,17,71.71,21.53,78.38,22.21Zm14.47-.35c5.39-.34,6.36-1.2,12.55-11.07-.59,6.7-1.71,8.74-10.37,18.39l5.12.83C104.57,22.5,110,16.77,118,13.28c-5.87-3.13-11.63-4.55-17.45-5.74a3.3,3.3,0,0,0-2,.2C94.78,9.77,91.81,17.22,92.85,21.86Zm56.44,20.26c-9.83-8.26-30.73-4.8-37.48,5.89A28.75,28.75,0,0,0,114,49.93c4.2,3,4.8,3,8.58-.4A28.82,28.82,0,0,1,144,41.86C145.61,42,147.23,42,149.29,42.12ZM51.75,52.93l7.76-4.85c-9.33-11.55-30.44-14.33-38.84-5.41C32.77,40.09,43,43.32,51.75,52.93Zm96.14,17.25c9.69,8.25,13.85,19.07,14.71,31.47a59.05,59.05,0,0,0,2-18.17,27.49,27.49,0,0,0-.95-7.14c-1.84-5.84-5.6-9.71-12-10.57ZM19.26,65.84C12.17,67.09,7.55,71.68,6.6,78.66a60.11,60.11,0,0,0,1.57,22.49c1.1-12.25,5.38-22.94,14.83-31Zm66.45-54.4c-4.53,7.27-4.52,19.57-.18,26.77C90.35,30.68,89.07,20.45,85.71,11.44ZM40.42,20.82c-7,3.63-16.6,13.28-17.82,17.24L39,32.47A15.2,15.2,0,0,1,40.42,20.82Zm92.17,11.76,16.84,6.05c-5.22-7-11.05-13.15-18.25-17.87C131.68,25,132.15,29,132.59,32.58ZM43.75,17.86c6.52,4,11.93,8,19.14,9.83C60.58,21.1,56.16,17.22,51,13.84ZM42.62,52.65c-6.75-5.07-13.51-10-22.71-8.36A29.69,29.69,0,0,0,42.62,52.65Zm111.57,8.73c1.3,1,3,2,4.41,3.36s2.68,2.87,4.49,4.84c-1.78-8.07-4.06-15.08-8-21.86C154.75,52.52,154.48,56.83,154.19,61.38ZM89.31,15.28l7.92-8.34c-2.85-.29-5.31-.72-7.78-.74s-3.65,1.93-2.62,4.3C87.5,12,88.36,13.47,89.31,15.28ZM73.9,6.89l8,7.68c.16-.3.64-1.14,1.1-2a18.77,18.77,0,0,0,1-1.89C85.1,8,84,6.14,81.16,6.19,78.78,6.23,76.4,6.64,73.9,6.89Z"/></g></g></svg>